<svg xmlns="http://www.w3.org/2000/svg" xmlns:xlink="http://www.w3.org/1999/xlink" viewBox="0,0,256,256" width="50px" height="50px"><g fill="#ffffff" fill-rule="nonzero" stroke="none" stroke-width="1" stroke-linecap="butt" stroke-linejoin="miter" stroke-miterlimit="10" stroke-dasharray="" stroke-dashoffset="0" font-family="none" font-weight="none" font-size="none" text-anchor="none" style="mix-blend-mode: normal"><g transform="scale(5.12,5.12)"><path d="M12.13867,7c-2.511,0 -4.36816,2.25708 -4.28516,4.70508c0.08,2.351 -0.02448,5.39786 -0.77148,7.88086c-0.748,2.491 -2.01403,4.06558 -4.08203,4.26758v2.29297c2.068,0.202 3.33403,1.77658 4.08203,4.26758c0.747,2.483 0.85048,5.52986 0.77148,7.88086c-0.083,2.448 1.77416,4.70508 4.28516,4.70508h25.72656c2.511,0 4.36816,-2.25708 4.28516,-4.70508c-0.08,-2.351 0.02353,-5.39786 0.76953,-7.88086c0.749,-2.491 2.01208,-4.06558 4.08008,-4.26758v-2.29297c-2.068,-0.202 -3.33108,-1.77658 -4.08008,-4.26758c-0.747,-2.483 -0.84953,-5.52986 -0.76953,-7.88086c0.082,-2.448 -1.77611,-4.70508 -4.28711,-4.70508zM12.13867,9h25.72461c0.733,0 1.24206,0.36583 1.53906,0.67383c0.5,0.517 0.77305,1.23289 0.74805,1.96289c-0.079,2.33 0.00451,5.69944 0.85352,8.52344c0.78,2.596 2.0073,4.04984 3.2793,4.83984c-1.271,0.79 -2.4983,2.24484 -3.2793,4.83984c-0.849,2.824 -0.93252,6.19344 -0.85352,8.52344c0.025,0.73 -0.24805,1.44489 -0.74805,1.96289c-0.297,0.308 -0.80606,0.67383 -1.53906,0.67383h-25.72461c-0.733,0 -1.24011,-0.36583 -1.53711,-0.67383c-0.5,-0.517 -0.77305,-1.23289 -0.74805,-1.96289c0.079,-2.33 -0.00647,-5.69944 -0.85547,-8.52344c-0.78,-2.595 -2.0073,-4.04984 -3.2793,-4.83984c1.272,-0.79 2.4993,-2.24484 3.2793,-4.83984c0.849,-2.824 0.93447,-6.19344 0.85547,-8.52344c-0.025,-0.73 0.24805,-1.44589 0.74805,-1.96289c0.297,-0.308 0.80411,-0.67383 1.53711,-0.67383zM17.86719,15.63281v18.73242h7.70898c2.003,0 3.66659,-0.48806 4.80859,-1.41406c1.144,-0.927 1.74805,-2.27539 1.74805,-3.90039c0,-2.454 -1.74475,-4.29861 -4.34375,-4.59961v-0.0293c1.911,-0.33 3.40234,-2.12075 3.40234,-4.09375c0,-1.395 -0.53578,-2.57602 -1.55078,-3.41602c-1.011,-0.837 -2.43147,-1.2793 -4.10547,-1.2793zM20.91992,18.08398h3.90234c2.141,0 3.32031,0.93853 3.32031,2.64453c-0.001,1.831 -1.40136,2.83984 -3.94336,2.83984h-3.2793zM20.91992,25.86328h3.875c2.8,0 4.2207,1.01281 4.2207,3.00781c0,1.993 -1.40083,3.04688 -4.04883,3.04688h-4.04687z"></path></g></g></svg>