<?xml version="1.0" encoding="UTF-8"?>
<svg id="Camada_1" data-name="Camada 1" xmlns="http://www.w3.org/2000/svg" viewBox="0 0 24 24">
  <defs>
    <style>
      .cls-1 {
        fill: #fff;
      }
    </style>
  </defs>
  <path class="cls-1" d="m3.12,1c-.91,0-1.62.48-1.96,1.31-.11.26-.16.53-.16.81,0,.93.6,1.69.96,2.14.06.08.12.15.18.23l.16.21c.16.21.34.45.4.57.02.05.04.15.08.27.16.57.45,1.62.92,2.41.19.32.45.73.64,1.01-.13.64-.34,1.81-.34,2.52,0,1.25.26,2.25.82,3.17.21.33.85,1.33,1.93,1.33.38,0,1.02-.15,1.19-1.1.77.99,2.06,2.22,4.06,3.1,0,0-3.75-4.37-4.41-7.1,0,0-.72.73-1.33,2.21-.18-.46-.27-.97-.27-1.61s.28-2.03.38-2.52l.09-.42-.25-.36s-.51-.73-.8-1.24c-.34-.58-.58-1.47-.72-1.95-.07-.23-.12-.4-.16-.52-.18-.38-.43-.71-.66-1.01l-.12-.17c-.06-.09-.15-.2-.24-.31-.18-.23-.52-.66-.51-.93l.11-.08h0c.8,0,1.82.56,2.21.77.13.07.22.12.27.14l.17.08h.34c.45.02,1.81.05,2.77.44,1.75.7,2.72,1.4,3.7,2.68,2.32,3.02,3.18,6.94,3.19,6.97l.12.56.55.18s1.55.52,2.98,1.86c-1.8.44-2.42,1.32-2.42,1.32,0,0,.48.93,2.75,2.38,1.38.88,2.12,1.5,3.25,2.62,0,0-1.12-2.5-2.7-4.49,1.2-.38,2.67-.58,2.67-.58l-.91-1.26c-1.5-2.08-3.51-3.13-4.46-3.53-.33-1.27-1.33-4.52-3.43-7.24-1.2-1.56-2.47-2.49-4.55-3.32-1.23-.49-2.7-.55-3.36-.56-.57-.32-1.85-1.01-3.14-1.01h0Zm4.06,4s-.44,0-.94.12l1.38,1.87c.38-.5.38-1.08.38-1.08,0,0-.25-.67-.81-.92Z"/>
</svg>