<svg width="35" height="34" viewBox="0 0 35 34" fill="none" xmlns="http://www.w3.org/2000/svg">
<path opacity="0.8" d="M26.9346 1.10925C28.7523 1.11129 30.495 1.83427 31.7803 3.11958C33.0656 4.40489 33.7886 6.14756 33.7906 7.96526V26.1685C33.7886 27.9862 33.0656 29.7288 31.7803 31.0142C30.495 32.2995 28.7523 33.0224 26.9346 33.0245H8.73137C6.91367 33.0224 5.171 32.2995 3.88569 31.0142C2.60038 29.7288 1.8774 27.9862 1.87537 26.1685V7.96526C1.8774 6.14756 2.60038 4.40489 3.88569 3.11958C5.171 1.83427 6.91367 1.11129 8.73137 1.10925H26.9346ZM26.9346 0.147949H8.73137C7.70472 0.147697 6.68807 0.349725 5.73952 0.742492C4.79097 1.13526 3.92909 1.71107 3.20314 2.43702C2.47718 3.16298 1.90137 4.02485 1.50861 4.97341C1.11584 5.92196 0.91381 6.9386 0.914063 7.96526V26.1685C0.91381 27.1951 1.11584 28.2118 1.50861 29.1603C1.90137 30.1089 2.47718 30.9708 3.20314 31.6967C3.92909 32.4227 4.79097 32.9985 5.73952 33.3912C6.68807 33.784 7.70472 33.986 8.73137 33.9858H26.9346C27.9612 33.986 28.9779 33.784 29.9264 33.3912C30.875 32.9985 31.7369 32.4227 32.4628 31.6967C33.1888 30.9708 33.7646 30.1089 34.1574 29.1603C34.5501 28.2118 34.7522 27.1951 34.7519 26.1685V7.96526C34.7522 6.9386 34.5501 5.92196 34.1574 4.97341C33.7646 4.02485 33.1888 3.16298 32.4628 2.43702C31.7369 1.71107 30.875 1.13526 29.9264 0.742492C28.9779 0.349725 27.9612 0.147697 26.9346 0.147949Z" fill="white" fill-opacity="0.8"/>
<path opacity="0.8" d="M12.2437 23.1443H10.3211C10.2534 23.1474 10.1859 23.1367 10.1225 23.1129C10.0592 23.089 10.0013 23.0525 9.95256 23.0055C9.9038 22.9585 9.86512 22.9021 9.8389 22.8397C9.81268 22.7773 9.79946 22.7102 9.80005 22.6425V11.3568C9.79792 11.2898 9.80954 11.2231 9.83419 11.1608C9.85884 11.0985 9.89601 11.0419 9.9434 10.9945C9.99079 10.9471 10.0474 10.9099 10.1097 10.8853C10.172 10.8606 10.2387 10.849 10.3057 10.8511C11.1766 10.8281 12.3033 10.8165 13.6453 10.8165C15.3333 10.8165 16.6003 11.2145 17.4155 11.997C17.8142 12.3711 18.1301 12.8246 18.3427 13.3283C18.5553 13.832 18.6599 14.3747 18.6498 14.9213C18.6498 16.3536 18.1288 17.438 17.0983 18.1455C16.1158 18.8223 14.8719 19.1645 13.403 19.1645H12.7666V22.6252C12.7685 22.6942 12.7562 22.7628 12.7306 22.8269C12.7049 22.891 12.6664 22.9492 12.6174 22.9978C12.5684 23.0464 12.51 23.0845 12.4457 23.1097C12.3814 23.1349 12.3127 23.1467 12.2437 23.1443ZM10.5691 22.3752H11.9976V18.3954H13.4107C14.72 18.3954 15.8178 18.0974 16.6791 17.511C17.4982 16.9477 17.8961 16.1018 17.8961 14.9213C17.9071 14.478 17.8238 14.0375 17.6518 13.6288C17.4798 13.2202 17.223 12.8527 16.8983 12.5507C16.2312 11.9105 15.143 11.5894 13.6606 11.5894C12.4513 11.5894 11.4189 11.5894 10.5845 11.6183L10.5691 22.3752ZM10.3345 11.6202H10.3153C10.3153 11.6202 10.3211 11.6202 10.3345 11.6202ZM13.5068 17.538C13.1136 17.5501 12.7199 17.5373 12.3283 17.4995L11.9976 17.4514V12.4777H12.5994H13.0531C13.0531 12.4777 13.4376 12.4777 13.6453 12.4777C14.5335 12.4777 15.2333 12.6968 15.7236 13.1275C16.2139 13.5582 16.4926 14.1984 16.4926 14.9905C16.4926 15.8922 16.1966 16.5593 15.6121 16.9746C14.9865 17.3778 14.2502 17.5748 13.5068 17.538ZM12.7666 16.7689H13.5068C14.091 16.7978 14.6696 16.6439 15.1622 16.3286C15.5352 16.0633 15.7178 15.6192 15.7178 14.9828C15.7178 14.406 15.5544 13.9927 15.218 13.6966C14.8815 13.4005 14.3412 13.2217 13.6453 13.2217C13.453 13.2217 13.2607 13.2217 13.0685 13.2217C12.9531 13.2217 12.8493 13.2217 12.7589 13.2217L12.7666 16.7689Z" fill="white" fill-opacity="0.8"/>
<path opacity="0.8" d="M22.1759 23.3173C21.1088 23.3173 20.2148 23.125 19.5188 22.7271C19.4189 22.6827 19.3346 22.6093 19.277 22.5164C19.2194 22.4234 19.1911 22.3153 19.1958 22.206V20.5968C19.1931 20.5119 19.2131 20.4278 19.2536 20.3531C19.2941 20.2784 19.3538 20.2159 19.4265 20.1719C19.5058 20.1231 19.5985 20.1005 19.6914 20.1074C19.7842 20.1143 19.8725 20.1503 19.9437 20.2104C20.5629 20.6903 21.3232 20.9526 22.1067 20.9563C22.3525 20.9735 22.5982 20.9216 22.8161 20.8064C22.8615 20.7837 22.8997 20.7488 22.9265 20.7057C22.9533 20.6626 22.9677 20.613 22.968 20.5622C22.97 20.4989 22.9583 20.4359 22.9338 20.3775C22.9092 20.3191 22.8724 20.2667 22.8257 20.2238C22.7488 20.1508 22.5335 19.9931 21.9336 19.7624C20.9435 19.3779 20.2629 18.9684 19.8553 18.5069C19.4216 18.0082 19.1923 17.3641 19.2131 16.7035C19.2072 16.308 19.2886 15.916 19.4514 15.5554C19.6142 15.1949 19.8545 14.8746 20.1552 14.6175C20.7666 14.0696 21.6337 13.7927 22.7296 13.7927C23.7332 13.7927 24.4964 13.9312 25.0636 14.2138L25.0905 14.2272C25.182 14.2866 25.2556 14.3696 25.3037 14.4674C25.3517 14.5652 25.3724 14.6742 25.3635 14.7829V16.2191C25.3706 16.3117 25.3513 16.4044 25.3077 16.4864C25.2641 16.5684 25.1981 16.6364 25.1174 16.6824C25.0382 16.7233 24.949 16.7408 24.8601 16.733C24.7713 16.7252 24.6865 16.6923 24.6156 16.6382C24.0726 16.2925 23.4426 16.1078 22.7988 16.1056C22.5716 16.0864 22.3438 16.1359 22.1451 16.2479C22.1043 16.2723 22.0702 16.3066 22.046 16.3475C22.0218 16.3885 22.0083 16.4349 22.0067 16.4824C22.007 16.5336 22.0184 16.5842 22.0399 16.6306C22.0615 16.677 22.0928 16.7183 22.1316 16.7516C22.2009 16.8189 22.4104 16.9689 23.0276 17.215C24.0446 17.5995 24.7579 18.0205 25.1809 18.4762C25.6425 18.9785 25.8883 19.642 25.8653 20.3238C25.8766 20.7449 25.7889 21.1628 25.6092 21.5438C25.4296 21.9248 25.163 22.2583 24.831 22.5175C24.1773 23.0462 23.2756 23.3173 22.1759 23.3173ZM19.9649 22.0945C20.6546 22.4215 21.4131 22.5771 22.1759 22.5483C23.0968 22.5483 23.8274 22.3349 24.3484 21.9157C24.5913 21.7286 24.7859 21.4862 24.916 21.2086C25.0461 20.931 25.1079 20.6263 25.0963 20.32C25.1079 20.0797 25.0719 19.8395 24.9904 19.6131C24.9089 19.3868 24.7835 19.1788 24.6214 19.0011C24.2773 18.6358 23.6467 18.2743 22.7469 17.9282C22.1701 17.6937 21.799 17.4957 21.5933 17.3015C21.4804 17.1962 21.3902 17.0688 21.3283 16.9273C21.2665 16.7857 21.2343 16.633 21.2338 16.4786C21.2362 16.3137 21.2777 16.1517 21.3549 16.006C21.4321 15.8603 21.5428 15.735 21.6779 15.6403C22.0083 15.4126 22.4063 15.3042 22.8065 15.3327C23.4295 15.3344 24.0439 15.4791 24.6022 15.7557V14.8444C24.0044 14.6316 23.3713 14.5357 22.7373 14.5618C21.8356 14.5618 21.1415 14.7733 20.6743 15.1905C20.4544 15.3755 20.2787 15.6074 20.1603 15.8693C20.0418 16.1311 19.9836 16.4162 19.9899 16.7035C19.9693 17.1761 20.1295 17.6388 20.4378 17.9975C20.7589 18.3589 21.3568 18.7107 22.2182 19.0453C22.6387 19.1797 23.0301 19.3923 23.3717 19.672C23.4936 19.786 23.5906 19.9239 23.6568 20.077C23.723 20.2302 23.7568 20.3954 23.7562 20.5622C23.7568 20.7387 23.7119 20.9123 23.6261 21.0665C23.5403 21.2207 23.4163 21.3503 23.266 21.4428C22.923 21.6495 22.5257 21.748 22.1259 21.7254C21.3734 21.7271 20.634 21.528 19.9841 21.1486L19.9649 22.0945Z" fill="white" fill-opacity="0.8"/>
</svg>
