<svg xmlns="http://www.w3.org/2000/svg" xmlns:xlink="http://www.w3.org/1999/xlink" viewBox="0,0,256,256" width="64px" height="64px"><g fill="#ffffff" fill-rule="nonzero" stroke="none" stroke-width="1" stroke-linecap="butt" stroke-linejoin="miter" stroke-miterlimit="10" stroke-dasharray="" stroke-dashoffset="0" font-family="none" font-weight="none" font-size="none" text-anchor="none" style="mix-blend-mode: normal"><g transform="scale(4,4)"><path d="M32,13c-8.71883,0 -16.62443,2.05985 -22.42578,5.46094c-5.80135,3.40109 -9.57422,8.23336 -9.57422,13.71289c0,5.47953 3.77287,10.31181 9.57422,13.71289c5.80135,3.40109 13.70695,5.46094 22.42578,5.46094c8.71883,0 16.62443,-2.05985 22.42578,-5.46094c5.80135,-3.40109 9.57422,-8.23336 9.57422,-13.71289c0,-5.47954 -3.77287,-10.31181 -9.57422,-13.71289c-5.80135,-3.40109 -13.70695,-5.46094 -22.42578,-5.46094zM32,15c8.402,0 15.99562,2.00894 21.41406,5.18555c5.41845,3.17661 8.58594,7.43059 8.58594,11.98828c0,4.55769 -3.16749,8.81167 -8.58594,11.98828c-5.41845,3.17661 -13.01207,5.18555 -21.41406,5.18555c-8.40199,0 -15.99562,-2.00894 -21.41406,-5.18555c-5.41845,-3.17661 -8.58594,-7.43059 -8.58594,-11.98828c0,-4.55769 3.16749,-8.81167 8.58594,-11.98828c5.41845,-3.17661 13.01207,-5.18555 21.41406,-5.18555zM26.01563,18.33008c-0.05698,0.00036 -0.11383,0.00559 -0.16992,0.01563c-1.51357,0.23544 -2.91907,0.52137 -4.22461,0.8457c-0.35944,0.07406 -0.64945,0.33903 -0.75556,0.69035c-0.10612,0.35131 -0.01129,0.73253 0.24705,0.99319c0.25834,0.26066 0.63869,0.35889 0.99094,0.25592c1.24647,-0.30966 2.59435,-0.58399 4.05078,-0.81055c0.51931,-0.07386 0.89332,-0.53638 0.85686,-1.05965c-0.03646,-0.52327 -0.471,-0.92946 -0.99553,-0.93058zM17.9082,20.36328c-0.12351,-0.00037 -0.24602,0.02215 -0.36133,0.06641c-4.3219,1.58034 -7.16345,3.56025 -8.92773,5.16797c-1.76428,1.60772 -2.49609,2.92383 -2.49609,2.92383c-0.19137,0.31484 -0.19414,0.7094 -0.0072,1.02689c0.18694,0.31749 0.5333,0.50649 0.90145,0.49188c0.36815,-0.0146 0.69845,-0.23044 0.85965,-0.56174c0,0 0.51013,-0.96281 2.08984,-2.40234c1.57972,-1.43953 4.18548,-3.27492 8.26758,-4.76758c0.4615,-0.15954 0.74032,-0.62902 0.65957,-1.11059c-0.08075,-0.48157 -0.49745,-0.83443 -0.98574,-0.83472zM29.64063,21.04492l-3.37891,16.17383h3.53711l1.70703,-8.08789h2.82617c0.902,0 1.49739,0.15122 1.77539,0.44922c0.276,0.301 0.33773,0.86655 0.17773,1.68555l-1.29102,5.95313h3.59375l1.39844,-6.44141c0.3,-1.544 0.07222,-2.67628 -0.67578,-3.36328c-0.762,-0.698 -2.10447,-0.97852 -4.10547,-0.97852h-3.15234l1.125,-5.39062zM14.13086,26.43555l-2.73437,14.82617h3.56641l0.71094,-4.04297h2.21875c4.645,0 7.17219,-1.0765 8.11719,-5.0625c0.813,-3.425 -1.26541,-5.7207 -4.69141,-5.7207zM42.43555,26.43555l-2.73437,14.82617h3.56641l0.71094,-4.04297h2.21875c4.645,0 7.17219,-1.0765 8.11719,-5.0625c0.813,-3.425 -1.26541,-5.7207 -4.69141,-5.7207zM17.19336,29.13086h2.7793c2.302,0 2.78602,1.03836 2.66602,2.19336c-0.309,2.973 -2.1632,3.19727 -4.1582,3.19727h-2.30469zM45.49805,29.13086h2.7793c2.302,0 2.78601,1.03836 2.66602,2.19336c-0.309,2.973 -2.1642,3.19727 -4.1582,3.19727h-2.30469zM57.62891,46.96875c-0.37065,-0.00648 -0.71448,0.19259 -0.8934,0.51726c-0.17892,0.32467 -0.16357,0.72168 0.03989,1.03157l1.07422,1.6875c0.29718,0.46599 0.91585,0.60284 1.38184,0.30566c0.46599,-0.29718 0.60284,-0.91585 0.30566,-1.38184l-1.07617,-1.68555c-0.17862,-0.28937 -0.49204,-0.46815 -0.83203,-0.47461zM53.5293,49.18359c-0.33435,0.01902 -0.63699,0.20412 -0.80622,0.49311c-0.16923,0.28899 -0.18258,0.64349 -0.03558,0.94439l0.85352,1.81055c0.23623,0.49943 0.8326,0.71279 1.33203,0.47656c0.49943,-0.23623 0.71279,-0.8326 0.47656,-1.33203l-0.85352,-1.80859c-0.17098,-0.37543 -0.55493,-0.60735 -0.9668,-0.58398zM49.26172,50.91406c-0.31731,0.01513 -0.60856,0.18011 -0.78468,0.44449c-0.17612,0.26438 -0.21617,0.59671 -0.10789,0.89535l0.6543,1.89063c0.18068,0.52208 0.75038,0.79884 1.27246,0.61816c0.52208,-0.18068 0.79884,-0.75038 0.61816,-1.27246l-0.6543,-1.89062c-0.14084,-0.42682 -0.54911,-0.70726 -0.99805,-0.68555zM44.82031,52.21484c-0.29947,0.01531 -0.57627,0.1642 -0.75413,0.40562c-0.17785,0.24143 -0.23799,0.54992 -0.16384,0.84047l0.46875,1.94531c0.12998,0.53718 0.67082,0.86729 1.20801,0.7373c0.53718,-0.12998 0.86729,-0.67082 0.7373,-1.20801l-0.46875,-1.94336c-0.10773,-0.47455 -0.54138,-0.80267 -1.02734,-0.77734zM40.36328,53.09961c-0.03387,-0.00107 -0.06776,-0.00042 -0.10156,0.00195c-0.28199,0.01782 -0.54329,0.15408 -0.7193,0.37512c-0.17601,0.22104 -0.25031,0.50621 -0.20453,0.78504l0.29492,1.97852c0.05258,0.35352 0.28981,0.65211 0.62228,0.78326c0.33247,0.13115 0.70967,0.07493 0.98944,-0.14749c0.27977,-0.22241 0.4196,-0.57721 0.3668,-0.9307l-0.29492,-1.97852c-0.06434,-0.4825 -0.46671,-0.84859 -0.95312,-0.86719zM35.73242,53.58594c-0.28235,-0.0058 -0.554,0.10805 -0.74785,0.31343c-0.19385,0.20538 -0.29182,0.48315 -0.26973,0.7647l0.12891,1.99609c0.02299,0.3566 0.23449,0.67384 0.55482,0.8322c0.32033,0.15837 0.70081,0.13379 0.99811,-0.06446c0.2973,-0.19825 0.46624,-0.54006 0.44317,-0.89665l-0.13086,-1.99609c-0.02653,-0.5234 -0.45262,-0.93756 -0.97656,-0.94922z"></path></g></g></svg>