<svg xmlns="http://www.w3.org/2000/svg" xmlns:xlink="http://www.w3.org/1999/xlink" viewBox="0,0,256,256" width="50px" height="50px"><g fill="#ffffff" fill-rule="nonzero" stroke="none" stroke-width="1" stroke-linecap="butt" stroke-linejoin="miter" stroke-miterlimit="10" stroke-dasharray="" stroke-dashoffset="0" font-family="none" font-weight="none" font-size="none" text-anchor="none" style="mix-blend-mode: normal"><g transform="scale(5.12,5.12)"><path d="M25,2c-12.68866,0 -23,10.31134 -23,23c0,12.68867 10.31134,23 23,23c12.68867,0 23,-10.31133 23,-23c0,-12.68866 -10.31133,-23 -23,-23zM25,4c11.60734,0 21,9.39266 21,21c0,11.60734 -9.39267,21 -21,21c-11.60733,0 -21,-9.39267 -21,-21c0,-11.60733 9.39266,-21 21,-21zM25,6c-10.48673,0 -19,8.51327 -19,19c0,10.48673 8.51327,19 19,19c10.48673,0 19,-8.51327 19,-19c0,-10.48673 -8.51327,-19 -19,-19zM25,8c3.97246,0 7.61171,1.36595 10.50195,3.63867c-0.5057,0.6198 -0.80273,1.41455 -0.80273,2.26172c0,1.6 0.90039,2.99961 1.90039,4.59961c0.8,1.3 1.59961,3.00039 1.59961,5.40039c0,1.7 -0.5,3.80039 -1.5,6.40039l-2,6.59961l-7.09961,-21.20117c1.2,-0.1 2.30078,-0.19922 2.30078,-0.19922c1,-0.1 0.90039,-1.59961 -0.09961,-1.59961h-0.10156c0,0 -3.19883,0.29883 -5.29883,0.29883c-1.9,0 -5.20117,-0.29883 -5.20117,-0.29883h-0.09961c-1,0 -1.09961,1.59961 -0.09961,1.59961c0,0 0.99961,0.09922 2.09961,0.19922l3.09961,8.40039l-4.29883,12.90039l-7.20117,-21.40039c1.2,-0.1 2.30078,-0.19922 2.30078,-0.19922c1,-0.1 0.90039,-1.59961 -0.09961,-1.59961h-0.09961c0,0 -1.31138,0.10771 -2.75586,0.19531c3.11525,-3.66622 7.75323,-5.99609 12.95508,-5.99609zM37.08789,13.04102c1.36082,1.37548 2.4754,2.98802 3.30469,4.76367c-0.02117,1.13168 -0.20927,2.26285 -0.49219,3.39453c-0.4,-1.4 -0.9,-2.59961 -1.5,-3.59961l-0.20117,-0.40039c-0.8,-1.3 -1.39844,-2.29922 -1.39844,-3.19922c0,-0.34256 0.09936,-0.68074 0.28711,-0.95898zM23.59961,16.09961h1c0.4,0.1 0.70117,0.09961 1.20117,0.09961l0.09961,0.20117l7.09961,21.19922l0.69727,1.99609c-0.38145,0.22735 -0.77175,0.43916 -1.17187,0.63672l-5.32617,-14.23242l-0.69922,-1.90039l-0.19922,-0.69922zM10.4668,16.19922h0.43359l0.09961,0.20117l7.19922,21.40039l0.60156,1.79883l-0.34375,1.09766c-0.2749,-0.11436 -0.53736,-0.25077 -0.80469,-0.37891l-8.13477,-22.32422c0.28033,-0.62023 0.59934,-1.21731 0.94922,-1.79492zM41.58594,21.29492c0.26435,1.1935 0.41406,2.4306 0.41406,3.70508c0,5.25918 -2.3768,9.94718 -6.11328,13.0625l4.71289,-13.66211c0.43734,-1.11281 0.75281,-2.13897 0.98633,-3.10547zM8.36719,21.47266l6.21289,16.95117c-4.00073,-3.1069 -6.58008,-7.95187 -6.58008,-13.42383c0,-1.21031 0.12814,-2.38941 0.36719,-3.52734zM25,26.59961l5.3418,14.53516c-1.68037,0.55404 -3.47288,0.86523 -5.3418,0.86523c-1.74137,0 -3.41963,-0.26436 -5,-0.74805z"></path></g></g></svg>